<svg xmlns="http://www.w3.org/2000/svg" viewBox="0 0 56 56" fill="none" width="56" height="56">
  
  <path d="M28 2 L52 15.5 L52 42.5 L28 56 L4 42.5 L4 15.5 Z" fill="#8efb6a1a" stroke="#8efb6a" stroke-width="1.5"></path>
  
  <path d="M28 12 L43 20.5 L43 37.5 L28 46 L13 37.5 L13 20.5 Z" fill="#8efb6a"></path>
  
  <line x1="19" y1="29" x2="37" y2="29" stroke="#0d0e14" stroke-width="2.5" stroke-linecap="round"></line>
  <line x1="20.7" y1="22" x2="35.3" y2="36" stroke="#0d0e14" stroke-width="2.5" stroke-linecap="round"></line>
  <line x1="35.3" y1="22" x2="20.7" y2="36" stroke="#0d0e14" stroke-width="2.5" stroke-linecap="round"></line>
  <line x1="28" y1="19" x2="28" y2="39" stroke="#0d0e14" stroke-width="2.5" stroke-linecap="round"></line>
  
  <circle cx="28" cy="2" r="2.5" fill="#8efb6a"></circle>
  <circle cx="52" cy="15.5" r="2.5" fill="#8efb6a"></circle>
  <circle cx="52" cy="42.5" r="2.5" fill="#8efb6a"></circle>
  <circle cx="28" cy="56" r="2.5" fill="#8efb6a"></circle>
  <circle cx="4" cy="42.5" r="2.5" fill="#8efb6a"></circle>
  <circle cx="4" cy="15.5" r="2.5" fill="#8efb6a"></circle>
</svg>