<svg xmlns="http://www.w3.org/2000/svg" viewBox="0 0 280 56" fill="none" width="280" height="56">
  
  <path d="M28 4 L48 15.5 L48 38.5 L28 50 L8 38.5 L8 15.5 Z" fill="#8efb6a1f" stroke="#8efb6a" stroke-width="1.5"></path>
  
  <path d="M28 14 L39 20.5 L39 33.5 L28 40 L17 33.5 L17 20.5 Z" fill="#8efb6a"></path>
  
  <line x1="21" y1="27" x2="35" y2="27" stroke="#0d0e14" stroke-width="2.2" stroke-linecap="round"></line>
  <line x1="22.5" y1="21.5" x2="33.5" y2="32.5" stroke="#0d0e14" stroke-width="2.2" stroke-linecap="round"></line>
  <line x1="33.5" y1="21.5" x2="22.5" y2="32.5" stroke="#0d0e14" stroke-width="2.2" stroke-linecap="round"></line>
  <line x1="28" y1="19" x2="28" y2="35" stroke="#0d0e14" stroke-width="2.2" stroke-linecap="round"></line>
  
  <circle cx="28" cy="4" r="2" fill="#8efb6a"></circle>
  <circle cx="48" cy="15.5" r="2" fill="#8efb6a"></circle>
  <circle cx="48" cy="38.5" r="2" fill="#8efb6a"></circle>
  <circle cx="28" cy="50" r="2" fill="#8efb6a"></circle>
  <circle cx="8" cy="38.5" r="2" fill="#8efb6a"></circle>
  <circle cx="8" cy="15.5" r="2" fill="#8efb6a"></circle>
  
  <line x1="58" y1="10" x2="58" y2="46" stroke="#2a2d3e" stroke-width="1"></line>
  
  <text x="66" y="26" font-family="&#39;DM Serif Display&#39;, Georgia, serif" font-size="22" font-weight="400" fill="#e8e9f0" letter-spacing="-0.44">Rate</text>
  <text x="66" y="48" font-family="&#39;DM Serif Display&#39;, Georgia, serif" font-size="22" font-weight="400" font-style="italic" fill="#8efb6a" letter-spacing="-0.44">my site.</text>
</svg>